<svg width="140" height="117" viewBox="0 0 140 117" fill="none" xmlns="http://www.w3.org/2000/svg">
<path d="M10 97H130C135.523 97 140 92.5228 140 87V20.5C140 14.9772 135.533 10.5 130.01 10.5H59C57.905 10.5 49.8825 4.90465 45.63 1.88309C43.9129 0.663023 41.8659 0 39.7595 0H10C4.47715 0 0 4.47715 0 10V87C0 92.5229 4.47716 97 10 97Z" fill="#86CCDB"/>
<rect y="20" width="140" height="97" rx="10" fill="#93E1F2"/>
<path d="M80 49.8947V43.4014L90.5728 53.8947H84C81.7909 53.8947 80 52.1039 80 49.8947ZM78 42V49.8947C78 53.2084 80.6863 55.8947 84 55.8947H92V91C92 93.2091 90.2091 95 88 95H56C53.7909 95 52 93.2091 52 91V46C52 43.7909 53.7909 42 56 42H78Z" stroke="#86CCDB" stroke-width="2"/>
</svg>
