<svg width="140" height="117" viewBox="0 0 140 117" fill="none" xmlns="http://www.w3.org/2000/svg">
<path d="M10 97H130C135.523 97 140 92.5228 140 87V20.5C140 14.9772 135.533 10.5 130.01 10.5H59C57.905 10.5 49.8825 4.90465 45.63 1.88309C43.9129 0.663023 41.8659 0 39.7595 0H10C4.47715 0 0 4.47715 0 10V87C0 92.5229 4.47716 97 10 97Z" fill="#86CCDB"/>
<rect y="20" width="140" height="97" rx="10" fill="#93E1F2"/>
<path d="M71.0002 74C78.7322 74 85.0002 67.732 85.0002 60C85.0002 52.268 78.7322 46 71.0002 46C63.2682 46 57.0002 52.268 57.0002 60C57.0002 67.732 63.2682 74 71.0002 74ZM71.0002 74C63.1931 74.0032 55.2781 79.5171 49.3455 91.7161C49.1852 92.0457 49.4216 92.4379 49.7881 92.4379H91.7339C92.0949 92.4379 92.332 92.0566 92.1823 91.7281C86.6701 79.6327 78.8902 73.9968 71.0002 74Z" stroke="#86CCDB" stroke-width="2"/>
</svg>
