<svg width="64" height="84" viewBox="0 0 64 84" fill="none" xmlns="http://www.w3.org/2000/svg">
<path d="M44.3131 17.7275V4.66324L58.8209 19.0245H45.6101C44.8938 19.0245 44.3131 18.4438 44.3131 17.7275ZM40.4222 1.94545V17.7275C40.4222 20.5927 42.7449 22.9154 45.6101 22.9154H61.6061V79.7636C61.6061 80.4799 61.0254 81.0606 60.3091 81.0606H3.24242C2.52613 81.0606 1.94545 80.4799 1.94545 79.7636V3.24242C1.94545 2.52613 2.52613 1.94545 3.24242 1.94545H40.4222Z" fill="white" stroke="#FFEEE9" stroke-width="3.89091"/>
<path d="M25.3636 55.2418L36.0015 55.222C37.0746 55.22 37.9434 54.3496 37.9434 53.2766V47.1738V35.6666C37.9434 34.5922 37.0724 33.7212 35.9979 33.7212H25.36C24.2856 33.7212 23.4146 34.5922 23.4146 35.6666V53.2963C23.4146 54.3722 24.2878 55.2437 25.3636 55.2418Z" fill="#FFEEE9"/>
<path d="M33.4768 51.2719C33.1525 51.2701 32.876 51.1549 32.6474 50.9263C32.4187 50.6977 32.3044 50.4203 32.3044 50.0942L32.2885 49.2062V48.1854C32.4267 48.0471 32.4967 47.8779 32.4985 47.6776C32.5003 47.4773 32.4303 47.3063 32.2885 47.1645V47.0901C32.2885 46.7569 32.4427 46.5885 32.7511 46.5849H33.2509V43.3628L32.6288 42.7407L33.1392 41.2094H33.8198L34.3302 42.7407L33.7081 43.3628V46.5849L34.2026 46.5903C34.511 46.5867 34.6652 46.7551 34.6652 47.0954V47.1698C34.5269 47.3151 34.4587 47.4862 34.4605 47.6829C34.4623 47.8796 34.5323 48.0471 34.6705 48.1854V49.2062L34.6546 50.0942C34.6546 50.4203 34.5394 50.6985 34.3089 50.9289C34.0785 51.1594 33.8012 51.2737 33.4768 51.2719Z" fill="white"/>
<g clip-path="url(#clip0)">
<path d="M27.9617 40.2719L27.435 40.2843C27.3144 40.2871 27.1998 40.3376 27.1163 40.4247C27.0328 40.5118 26.9872 40.6285 26.9894 40.7491L26.9316 44.2724C26.9309 44.402 26.9701 44.5249 27.058 44.6166C27.1016 44.662 27.1541 44.6979 27.2122 44.7221C27.2703 44.7463 27.3328 44.7582 27.3958 44.7572L28.1868 44.7428C28.1872 44.7428 28.1877 44.7428 28.1882 44.7428C28.3095 44.7397 28.4247 44.6888 28.5088 44.6013L28.5204 44.5891C28.6045 44.4941 28.6399 44.3708 28.6332 44.2399L28.4287 40.7194C28.4275 40.6593 28.4145 40.6001 28.3904 40.545C28.3663 40.49 28.3315 40.4403 28.2881 40.3987C28.2448 40.3571 28.1936 40.3245 28.1376 40.3028C28.0816 40.281 28.0218 40.2705 27.9617 40.2719V40.2719Z" fill="white"/>
<path d="M29.4823 37.5862L29.4761 37.5863L28.7885 37.6061C28.7481 37.6072 28.7083 37.6162 28.6714 37.6327C28.6345 37.6492 28.6012 37.6728 28.5735 37.7022C28.5283 37.7497 28.4992 37.8101 28.4903 37.875C28.4859 37.8708 28.4821 37.8661 28.4786 37.8621C28.4159 37.7935 28.3214 37.6896 28.167 37.6675C27.9877 37.6452 27.8069 37.6362 27.6262 37.6406C27.6257 37.6405 27.6251 37.6405 27.6246 37.6406C27.358 37.6489 26.8175 37.7049 26.1933 37.9851C25.9562 38.0909 25.742 38.2421 25.5629 38.4301C25.2522 38.7559 25.1629 39.1439 25.1596 39.3219C25.1596 39.4245 25.1689 39.5269 25.1874 39.6279C25.1963 39.6763 25.2205 39.7204 25.2566 39.7539C25.2926 39.7873 25.3384 39.8082 25.3873 39.8135C25.4361 39.8188 25.4854 39.8082 25.5277 39.7832C25.5701 39.7583 25.6032 39.7203 25.6223 39.675C25.6391 39.6358 25.6582 39.5975 25.6796 39.5606C25.726 39.4854 25.7832 39.4174 25.8494 39.3588C25.9905 39.2333 26.2117 39.1368 26.3359 39.1192C26.5482 39.0911 26.7345 39.1578 26.9398 39.3353C26.981 39.371 27.0511 39.5935 27.0988 39.8812C27.1076 39.9357 27.1359 39.9851 27.1784 40.0204C27.2209 40.0557 27.2747 40.0743 27.3299 40.073L28.0239 40.0565C28.0823 40.0552 28.1379 40.0315 28.1794 39.9904C28.2209 39.9493 28.245 39.8939 28.2469 39.8355C28.253 39.6495 28.2636 39.3675 28.2815 39.2825C28.3084 39.1565 28.3531 39.0908 28.3663 39.0736C28.401 39.0294 28.4483 38.9969 28.5021 38.9805C28.504 38.982 28.5056 38.9839 28.5068 38.9861C28.5079 38.9882 28.5086 38.9906 28.5088 38.993L28.5088 39.0289L28.5087 39.0347C28.5096 39.0752 28.5185 39.1151 28.5348 39.1522C28.5512 39.1892 28.5748 39.2226 28.6041 39.2505C28.6335 39.2784 28.668 39.3002 28.7059 39.3147C28.7437 39.3292 28.784 39.336 28.8245 39.3349L29.5118 39.3151C29.5522 39.314 29.592 39.305 29.6289 39.2885C29.6658 39.2719 29.6991 39.2483 29.7268 39.2188C29.7829 39.1602 29.8137 39.0818 29.8126 39.0007L29.7931 37.888C29.793 37.8842 29.7928 37.8803 29.7925 37.8765C29.787 37.7978 29.752 37.7242 29.6945 37.6704C29.6369 37.6165 29.5611 37.5864 29.4823 37.5862V37.5862Z" fill="white"/>
</g>
<defs>
<clipPath id="clip0">
<rect width="7.30371" height="7.30371" fill="white" transform="translate(22.6973 40.7739) rotate(-46.3579)"/>
</clipPath>
</defs>
</svg>
