<svg width="64" height="84" viewBox="0 0 64 84" fill="none" xmlns="http://www.w3.org/2000/svg">
<path d="M44.3131 17.7275V4.66324L58.8209 19.0245H45.6101C44.8938 19.0245 44.3131 18.4438 44.3131 17.7275ZM40.4222 1.94545V17.7275C40.4222 20.5927 42.7449 22.9154 45.6101 22.9154H61.6061V79.7636C61.6061 80.4799 61.0254 81.0606 60.3091 81.0606H3.24242C2.52613 81.0606 1.94545 80.4799 1.94545 79.7636V3.24242C1.94545 2.52613 2.52613 1.94545 3.24242 1.94545H40.4222Z" fill="white" stroke="#FFEEE9" stroke-width="3.89091"/>
<path d="M23.3452 38.8162L25.7027 37.174C26.1863 37.403 27.3711 37.8612 28.2415 37.8612C29.112 37.8612 30.4177 36.8304 30.9617 36.3149C31.6871 36.8304 32.8114 37.8612 33.6819 37.8612C34.5524 37.8612 35.9185 37.403 36.2207 37.174L38.3969 38.8162C37.9737 39.1026 37.3088 41.9846 37.3088 42.6718C37.3088 43.5308 38.3969 45.7643 38.3969 47.1387C38.3969 49.2004 36.9461 50.9185 35.314 51.7775C33.6819 52.6365 31.9773 53.3238 30.9617 53.824C29.9462 53.3238 28.6042 52.4647 27.1535 51.7775C25.34 50.9185 23.7079 48.8568 23.7079 47.1387C23.7079 45.4207 24.4333 43.5308 24.4333 42.6718C24.4333 41.9846 23.7079 39.1026 23.3452 38.8162Z" fill="#FFEEE9" stroke="#FFEEE9" stroke-width="2.91533" stroke-linejoin="round"/>
<path d="M27.6594 46.4708L30.4546 48.5208L34.5855 42.7138" stroke="white" stroke-width="2.36066" stroke-linecap="round" stroke-linejoin="round"/>
</svg>
